<svg width="23" height="23" viewBox="0 0 23 23" fill="none" xmlns="http://www.w3.org/2000/svg">
<g clip-path="url(#clip0_153_289)">
<path d="M13.3997 2.90727C13.6358 2.97368 13.8359 3.13113 13.9559 3.345C14.0759 3.55888 14.1061 3.81167 14.0398 4.04779L9.94206 18.6517C9.90927 18.7687 9.85375 18.878 9.77868 18.9736C9.70362 19.0691 9.61047 19.1489 9.50456 19.2084C9.39865 19.2679 9.28206 19.306 9.16143 19.3205C9.04081 19.335 8.91852 19.3255 8.80154 19.2927C8.68456 19.2599 8.57519 19.2044 8.47966 19.1293C8.38414 19.0543 8.30434 18.9611 8.24482 18.8552C8.18529 18.7493 8.14721 18.6327 8.13274 18.5121C8.11828 18.3915 8.12772 18.2692 8.16051 18.1522L12.2583 3.54829C12.291 3.43121 12.3466 3.32173 12.4217 3.22612C12.4968 3.13052 12.5901 3.05067 12.6961 2.99113C12.8021 2.93159 12.9188 2.89354 13.0396 2.87915C13.1603 2.86476 13.2827 2.87432 13.3997 2.90727ZM6.66664 6.52124C6.84005 6.69471 6.93747 6.92994 6.93747 7.17522C6.93747 7.4205 6.84005 7.65573 6.66664 7.82919L3.39676 11.1L6.66664 14.3699C6.75258 14.4557 6.82077 14.5577 6.8673 14.67C6.91383 14.7822 6.93781 14.9025 6.93785 15.024C6.93789 15.1455 6.91401 15.2658 6.86755 15.3781C6.82109 15.4903 6.75298 15.5923 6.6671 15.6783C6.58122 15.7642 6.47925 15.8324 6.36702 15.8789C6.25479 15.9255 6.13449 15.9495 6.01299 15.9495C5.89149 15.9495 5.77118 15.9256 5.65891 15.8792C5.54665 15.8327 5.44463 15.7646 5.35869 15.6787L1.43391 11.754C1.2605 11.5805 1.16309 11.3453 1.16309 11.1C1.16309 10.8547 1.2605 10.6195 1.43391 10.446L5.35869 6.52124C5.53215 6.34783 5.76739 6.25042 6.01266 6.25042C6.25794 6.25042 6.49318 6.34783 6.66664 6.52124ZM15.5337 7.82919C15.4453 7.74387 15.3749 7.6418 15.3264 7.52894C15.2779 7.41609 15.2524 7.29471 15.2513 7.17189C15.2503 7.04907 15.2737 6.92727 15.3202 6.81359C15.3667 6.69991 15.4354 6.59663 15.5222 6.50978C15.6091 6.42293 15.7124 6.35424 15.826 6.30773C15.9397 6.26122 16.0615 6.23782 16.1843 6.23889C16.3072 6.23995 16.4285 6.26547 16.5414 6.31395C16.6542 6.36243 16.7563 6.4329 16.8416 6.52124L20.7664 10.446C20.9398 10.6195 21.0372 10.8547 21.0372 11.1C21.0372 11.3453 20.9398 11.5805 20.7664 11.754L16.8416 15.6787C16.6681 15.8522 16.4327 15.9496 16.1873 15.9495C15.942 15.9494 15.7067 15.8518 15.5332 15.6783C15.3598 15.5047 15.2624 15.2694 15.2625 15.024C15.2626 14.7786 15.3601 14.5433 15.5337 14.3699L18.8036 11.1L15.5337 7.82919Z" fill="white"/>
</g>
<defs>
<clipPath id="clip0_153_289">
<rect width="22.2" height="22.2" fill="white"/>
</clipPath>
</defs>
</svg>
