<svg width="23" height="23" viewBox="0 0 23 23" fill="none" xmlns="http://www.w3.org/2000/svg">
<g clip-path="url(#clip0_27_377)">
<path d="M22.1484 11.75C22.1484 5.72949 17.2705 0.851562 11.25 0.851562C5.22949 0.851562 0.351562 5.72949 0.351562 11.75C0.351562 17.1896 4.33696 21.6983 9.54712 22.5166V14.9004H6.77856V11.75H9.54712V9.34883C9.54712 6.61763 11.1731 5.10898 13.6635 5.10898C14.8562 5.10898 16.1033 5.32168 16.1033 5.32168V8.00234H14.7287C13.3752 8.00234 12.9529 8.84258 12.9529 9.70435V11.75H15.9754L15.492 14.9004H12.9529V22.5166C18.163 21.6983 22.1484 17.1896 22.1484 11.75Z" fill="#FFDB00" fill-opacity="0.7"/>
</g>
<defs>
<clipPath id="clip0_27_377">
<rect width="22.5" height="22.5" fill="white" transform="translate(0 0.5)"/>
</clipPath>
</defs>
</svg>
