<svg width="23" height="23" viewBox="0 0 23 23" fill="none" xmlns="http://www.w3.org/2000/svg">
<g clip-path="url(#clip0_27_383)">
<path d="M7.025 0.5H16.475C20.075 0.5 23 3.425 23 7.025V16.475C23 18.2055 22.3125 19.8652 21.0889 21.0889C19.8652 22.3125 18.2055 23 16.475 23H7.025C3.425 23 0.5 20.075 0.5 16.475V7.025C0.5 5.29446 1.18745 3.6348 2.41113 2.41113C3.6348 1.18745 5.29446 0.5 7.025 0.5ZM6.8 2.75C5.72587 2.75 4.69574 3.1767 3.93622 3.93622C3.1767 4.69574 2.75 5.72587 2.75 6.8V16.7C2.75 18.9387 4.56125 20.75 6.8 20.75H16.7C17.7741 20.75 18.8043 20.3233 19.5638 19.5638C20.3233 18.8043 20.75 17.7741 20.75 16.7V6.8C20.75 4.56125 18.9387 2.75 16.7 2.75H6.8ZM17.6562 4.4375C18.0292 4.4375 18.3869 4.58566 18.6506 4.84938C18.9143 5.1131 19.0625 5.47079 19.0625 5.84375C19.0625 6.21671 18.9143 6.5744 18.6506 6.83812C18.3869 7.10184 18.0292 7.25 17.6562 7.25C17.2833 7.25 16.9256 7.10184 16.6619 6.83812C16.3982 6.5744 16.25 6.21671 16.25 5.84375C16.25 5.47079 16.3982 5.1131 16.6619 4.84938C16.9256 4.58566 17.2833 4.4375 17.6562 4.4375ZM11.75 6.125C13.2418 6.125 14.6726 6.71763 15.7275 7.77252C16.7824 8.82742 17.375 10.2582 17.375 11.75C17.375 13.2418 16.7824 14.6726 15.7275 15.7275C14.6726 16.7824 13.2418 17.375 11.75 17.375C10.2582 17.375 8.82742 16.7824 7.77252 15.7275C6.71763 14.6726 6.125 13.2418 6.125 11.75C6.125 10.2582 6.71763 8.82742 7.77252 7.77252C8.82742 6.71763 10.2582 6.125 11.75 6.125ZM11.75 8.375C10.8549 8.375 9.99645 8.73058 9.36351 9.36351C8.73058 9.99645 8.375 10.8549 8.375 11.75C8.375 12.6451 8.73058 13.5036 9.36351 14.1365C9.99645 14.7694 10.8549 15.125 11.75 15.125C12.6451 15.125 13.5036 14.7694 14.1365 14.1365C14.7694 13.5036 15.125 12.6451 15.125 11.75C15.125 10.8549 14.7694 9.99645 14.1365 9.36351C13.5036 8.73058 12.6451 8.375 11.75 8.375Z" fill="#FFDB00" fill-opacity="0.7"/>
</g>
<defs>
<clipPath id="clip0_27_383">
<rect width="22.5" height="22.5" fill="white" transform="translate(0.5 0.5)"/>
</clipPath>
</defs>
</svg>
