<svg width="23" height="23" viewBox="0 0 23 23" fill="none" xmlns="http://www.w3.org/2000/svg">
<path d="M14.4206 13.2923C14.5186 13.703 14.5679 14.1285 14.5686 14.5688C14.5686 16.0407 13.9838 17.4524 12.943 18.4932C11.9022 19.534 10.4905 20.1188 9.01855 20.1188V15.6788M14.4206 13.2923C16.1872 12.0054 17.6244 10.3188 18.6147 8.3704C19.6049 6.42197 20.1203 4.26691 20.1186 2.08126C17.9331 2.07968 15.7782 2.59508 13.8299 3.58537C11.8817 4.57566 10.1953 6.01274 8.90848 7.77926M14.4206 13.2923C12.8132 14.4688 10.9708 15.283 9.01855 15.6788M9.01855 15.6788C8.92297 15.6985 8.82708 15.717 8.73088 15.7343C7.89121 15.0694 7.13135 14.3095 6.46648 13.4699L6.52105 13.1813M8.90848 7.77926C8.09342 7.58648 7.24531 7.58068 6.42769 7.76227C5.61007 7.94387 4.84416 8.30816 4.18735 8.82785C3.53053 9.34753 2.99986 10.0091 2.63508 10.7631C2.27031 11.517 2.0809 12.3437 2.08105 13.1813H6.52105M8.90848 7.77926C7.73201 9.38634 6.91689 11.2293 6.52105 13.1813M4.44998 15.392C3.84126 15.8443 3.36799 16.4546 3.08149 17.1567C2.795 17.8589 2.70621 18.626 2.82475 19.3751C3.03504 19.4084 3.24964 19.425 3.46855 19.425C4.11726 19.4252 4.75703 19.2737 5.3368 18.9827C5.91658 18.6917 6.42031 18.2692 6.8078 17.7489M15.2623 8.32501C15.2623 8.69299 15.1161 9.04591 14.8559 9.30612C14.5957 9.56632 14.2428 9.71251 13.8748 9.71251C13.5068 9.71251 13.1539 9.56632 12.8937 9.30612C12.6335 9.04591 12.4873 8.69299 12.4873 8.32501C12.4873 7.95702 12.6335 7.6041 12.8937 7.3439C13.1539 7.08369 13.5068 6.93751 13.8748 6.93751C14.2428 6.93751 14.5957 7.08369 14.8559 7.3439C15.1161 7.6041 15.2623 7.95702 15.2623 8.32501Z" stroke="white" stroke-width="1.3875" stroke-linecap="round" stroke-linejoin="round"/>
</svg>
