<svg width="23" height="23" viewBox="0 0 23 23" fill="none" xmlns="http://www.w3.org/2000/svg">
<g clip-path="url(#clip0_27_387)">
<path d="M20 0.5C20.663 0.5 21.2989 0.763392 21.7678 1.23223C22.2366 1.70107 22.5 2.33696 22.5 3V20.5C22.5 21.163 22.2366 21.7989 21.7678 22.2678C21.2989 22.7366 20.663 23 20 23H2.5C1.83696 23 1.20107 22.7366 0.732233 22.2678C0.263392 21.7989 0 21.163 0 20.5V3C0 2.33696 0.263392 1.70107 0.732233 1.23223C1.20107 0.763392 1.83696 0.5 2.5 0.5H20ZM19.375 19.875V13.25C19.375 12.1692 18.9457 11.1327 18.1815 10.3685C17.4172 9.60433 16.3808 9.175 15.3 9.175C14.2375 9.175 13 9.825 12.4 10.8V9.4125H8.9125V19.875H12.4V13.7125C12.4 12.75 13.175 11.9625 14.1375 11.9625C14.6016 11.9625 15.0467 12.1469 15.3749 12.4751C15.7031 12.8033 15.8875 13.2484 15.8875 13.7125V19.875H19.375ZM4.85 7.45C5.40695 7.45 5.9411 7.22875 6.33492 6.83492C6.72875 6.4411 6.95 5.90695 6.95 5.35C6.95 4.1875 6.0125 3.2375 4.85 3.2375C4.28973 3.2375 3.75241 3.46007 3.35624 3.85624C2.96007 4.25241 2.7375 4.78973 2.7375 5.35C2.7375 6.5125 3.6875 7.45 4.85 7.45ZM6.5875 19.875V9.4125H3.125V19.875H6.5875Z" fill="#FFDB00" fill-opacity="0.7"/>
</g>
<defs>
<clipPath id="clip0_27_387">
<rect width="22.5" height="22.5" fill="white" transform="translate(0 0.5)"/>
</clipPath>
</defs>
</svg>
