<svg width="76" height="18" viewBox="0 0 76 18" fill="none" xmlns="http://www.w3.org/2000/svg">
<path d="M9.40625 0.9375V18H5.90234V0.9375H9.40625ZM14.6562 0.9375V3.69141H0.734375V0.9375H14.6562ZM16.6602 0.9375H23.0234C24.3281 0.9375 25.4492 1.13281 26.3867 1.52344C27.332 1.91406 28.0586 2.49219 28.5664 3.25781C29.0742 4.02344 29.3281 4.96484 29.3281 6.08203C29.3281 6.99609 29.1719 7.78125 28.8594 8.4375C28.5547 9.08594 28.1211 9.62891 27.5586 10.0664C27.0039 10.4961 26.3516 10.8398 25.6016 11.0977L24.4883 11.6836H18.957L18.9336 8.94141H23.0469C23.6641 8.94141 24.1758 8.83203 24.582 8.61328C24.9883 8.39453 25.293 8.08984 25.4961 7.69922C25.707 7.30859 25.8125 6.85547 25.8125 6.33984C25.8125 5.79297 25.7109 5.32031 25.5078 4.92188C25.3047 4.52344 24.9961 4.21875 24.582 4.00781C24.168 3.79688 23.6484 3.69141 23.0234 3.69141H20.1758V18H16.6602V0.9375ZM26.1992 18L22.3086 10.3945L26.0234 10.3711L29.9609 17.8359V18H26.1992ZM38.9727 3.85547L34.332 18H30.5938L36.9336 0.9375H39.3125L38.9727 3.85547ZM42.8281 18L38.1758 3.85547L37.8008 0.9375H40.2031L46.5781 18H42.8281ZM42.6172 11.6484V14.4023H33.6055V11.6484H42.6172ZM53.3984 18H49.6836L49.707 15.2578H53.3984C54.3203 15.2578 55.0977 15.0508 55.7305 14.6367C56.3633 14.2148 56.8398 13.6016 57.1602 12.7969C57.4883 11.9922 57.6523 11.0195 57.6523 9.87891V9.04688C57.6523 8.17188 57.5586 7.40234 57.3711 6.73828C57.1914 6.07422 56.9219 5.51562 56.5625 5.0625C56.2031 4.60938 55.7617 4.26953 55.2383 4.04297C54.7148 3.80859 54.1133 3.69141 53.4336 3.69141H49.6133V0.9375H53.4336C54.5742 0.9375 55.6172 1.13281 56.5625 1.52344C57.5156 1.90625 58.3398 2.45703 59.0352 3.17578C59.7305 3.89453 60.2656 4.75391 60.6406 5.75391C61.0234 6.74609 61.2148 7.85156 61.2148 9.07031V9.87891C61.2148 11.0898 61.0234 12.1953 60.6406 13.1953C60.2656 14.1953 59.7305 15.0547 59.0352 15.7734C58.3477 16.4844 57.5234 17.0352 56.5625 17.4258C55.6094 17.8086 54.5547 18 53.3984 18ZM51.6758 0.9375V18H48.1602V0.9375H51.6758ZM75.2188 15.2578V18H66.1367V15.2578H75.2188ZM67.2852 0.9375V18H63.7695V0.9375H67.2852ZM74.0352 7.88672V10.5586H66.1367V7.88672H74.0352ZM75.207 0.9375V3.69141H66.1367V0.9375H75.207Z" fill="#F3F3F3"/>
</svg>
