<svg width="23" height="23" viewBox="0 0 23 23" fill="none" xmlns="http://www.w3.org/2000/svg">
<g clip-path="url(#clip0_153_311)">
<path d="M2.45996 21.3738C2.46572 20.8216 2.61138 20.2799 2.88335 19.7992C3.16966 19.2991 3.58219 18.8829 4.07971 18.5921C4.57724 18.3013 5.14235 18.1462 5.7186 18.1422C6.29459 18.1465 6.85937 18.3017 7.3566 18.5925C7.85382 18.8833 8.26609 19.2993 8.55228 19.7992C8.82502 20.2797 8.96932 20.822 8.97566 21.3738M13.6313 21.3738C13.6371 20.8216 13.7827 20.2799 14.0547 19.7992C14.3409 19.2993 14.7532 18.8833 15.2504 18.5925C15.7476 18.3017 16.3124 18.1465 16.8884 18.1422C17.7473 18.1434 18.5712 18.4832 19.1812 19.0879C19.7912 19.6925 20.1383 20.5134 20.147 21.3723M8.14157 10.6528C8.14633 10.1184 8.28746 9.59357 8.55069 9.12737C8.82829 8.64236 9.22836 8.23873 9.71089 7.95683C10.1934 7.67494 10.7415 7.52467 11.3003 7.52104C12.4262 7.52262 13.4934 8.14581 14.0484 9.12737C14.3116 9.59357 14.4527 10.1184 14.4591 10.6528M5.7186 16.7023C6.19867 16.7023 6.65907 16.5116 6.99853 16.1722C7.33799 15.8327 7.5287 15.3723 7.5287 14.8922C7.5287 14.4122 7.33799 13.9518 6.99853 13.6123C6.65907 13.2728 6.19867 13.0821 5.7186 13.0821C5.23854 13.0821 4.77813 13.2728 4.43867 13.6123C4.09922 13.9518 3.90851 14.4122 3.90851 14.8922C3.90851 15.3723 4.09922 15.8327 4.43867 16.1722C4.77813 16.5116 5.23854 16.7023 5.7186 16.7023ZM16.89 16.7023C17.37 16.7023 17.8304 16.5116 18.1699 16.1722C18.5093 15.8327 18.7001 15.3723 18.7001 14.8922C18.7001 14.4122 18.5093 13.9518 18.1699 13.6123C17.8304 13.2728 17.37 13.0821 16.89 13.0821C16.4099 13.0821 15.9495 13.2728 15.61 13.6123C15.2706 13.9518 15.0799 14.4122 15.0799 14.8922C15.0799 15.3723 15.2706 15.8327 15.61 16.1722C15.9495 16.5116 16.4099 16.7023 16.89 16.7023ZM11.2987 6.41738C11.7466 6.41738 12.1762 6.23946 12.4929 5.92275C12.8096 5.60604 12.9875 5.17649 12.9875 4.7286C12.9875 4.2807 12.8096 3.85115 12.4929 3.53444C12.1762 3.21774 11.7466 3.03981 11.2987 3.03981C10.8508 3.03981 10.4213 3.21774 10.1046 3.53444C9.78787 3.85115 9.60995 4.2807 9.60995 4.7286C9.60995 5.17649 9.78787 5.60604 10.1046 5.92275C10.4213 6.23946 10.8508 6.41738 11.2987 6.41738Z" stroke="white" stroke-width="1.58571" stroke-linecap="round" stroke-linejoin="round"/>
<path d="M18.8834 0.864212H3.71764C3.41568 0.864212 3.12609 0.984165 2.91257 1.19768C2.69905 1.4112 2.5791 1.70079 2.5791 2.00275V9.51428C2.5791 10.1438 3.0897 10.6528 3.71764 10.6528H18.8834C19.1854 10.6528 19.475 10.5329 19.6885 10.3194C19.902 10.1058 20.022 9.81624 20.022 9.51428V2.00275C20.022 1.70079 19.902 1.4112 19.6885 1.19768C19.475 0.984165 19.1854 0.864212 18.8834 0.864212Z" stroke="white" stroke-width="1.58571" stroke-linecap="round" stroke-linejoin="round"/>
</g>
<defs>
<clipPath id="clip0_153_311">
<rect width="22.2" height="22.2" fill="white" transform="translate(0.200195)"/>
</clipPath>
</defs>
</svg>
