<svg width="23" height="24" viewBox="0 0 23 24" fill="none" xmlns="http://www.w3.org/2000/svg">
<g clip-path="url(#clip0_27_349)">
<path fill-rule="evenodd" clip-rule="evenodd" d="M7.66125 15.5898C11.2659 19.1944 14.6062 19.5891 15.5869 19.6257C16.7719 19.6688 17.9812 18.7013 18.5044 17.7104C17.67 16.7316 16.5834 15.9723 15.3937 15.1491C14.6916 15.8504 13.8262 17.1535 12.6741 16.6866C12.0187 16.4232 10.4006 15.6779 8.98688 14.2632C7.57312 12.8485 6.82781 11.2313 6.5625 10.5769C6.09562 9.42288 7.4025 8.55569 8.10469 7.8535C7.28156 6.64413 6.53531 5.52944 5.55844 4.73725C4.55344 5.26225 3.58031 6.46225 3.62437 7.66319C3.66094 8.64382 4.05562 11.9841 7.66125 15.5898ZM15.5175 21.4998C14.1675 21.4501 10.3416 20.9213 6.33469 16.9154C2.32875 12.9085 1.80094 9.0835 1.75031 7.73256C1.67531 5.67381 3.25219 3.67413 5.07375 2.89319C5.2931 2.79847 5.53331 2.76241 5.77081 2.78854C6.00831 2.81467 6.23493 2.9021 6.42844 3.04225C7.93594 4.14194 8.97563 5.80788 9.86906 7.11288C10.0549 7.38424 10.1401 7.71204 10.1098 8.03954C10.0795 8.36705 9.93562 8.67366 9.70312 8.90631L8.43187 10.1785C8.72719 10.8301 9.32812 11.9532 10.3125 12.9376C11.2969 13.9219 12.42 14.5229 13.0725 14.8182L14.3428 13.5469C14.5761 13.3135 14.884 13.1695 15.2128 13.1402C15.5415 13.1109 15.87 13.1981 16.1409 13.3866C17.4722 14.3091 19.0359 15.3338 20.1759 16.7935C20.3275 16.9884 20.4238 17.2204 20.455 17.4654C20.4862 17.7103 20.451 17.959 20.3531 18.1857C19.5684 20.0166 17.5828 21.5757 15.5175 21.4998Z" fill="#FFDB00" fill-opacity="0.7"/>
</g>
<defs>
<clipPath id="clip0_27_349">
<rect width="22.5" height="22.5" fill="white" transform="translate(0 0.75)"/>
</clipPath>
</defs>
</svg>
