<svg width="60" height="60" viewBox="0 0 60 60" fill="none" xmlns="http://www.w3.org/2000/svg">
<g clip-path="url(#clip0_36_707)">
<path d="M21.775 18.3875H20.3875V36.425C20.3875 36.793 20.5336 37.1459 20.7938 37.4061C21.054 37.6663 21.407 37.8125 21.775 37.8125H39.8125V36.425H21.775V18.3875Z" fill="#F3F3F3"/>
<path d="M39.8125 23.2438H34.9562V24.6313H37.4468L32.1812 29.8968L29.205 26.9137C29.1405 26.8487 29.0638 26.7971 28.9793 26.7619C28.8947 26.7266 28.8041 26.7085 28.7125 26.7085C28.6209 26.7085 28.5302 26.7266 28.4457 26.7619C28.3611 26.7971 28.2844 26.8487 28.2199 26.9137L23.1625 31.9781L24.1407 32.9563L28.7125 28.3845L31.6887 31.3676C31.7532 31.4326 31.8299 31.4842 31.9144 31.5194C31.999 31.5547 32.0896 31.5728 32.1812 31.5728C32.2728 31.5728 32.3635 31.5547 32.448 31.5194C32.5326 31.4842 32.6093 31.4326 32.6738 31.3676L38.425 25.6095V28.1H39.8125V23.2438Z" fill="#F3F3F3"/>
<path d="M7.37776 46.6925H53.3242C54.8702 46.6925 56.1348 45.4278 56.1348 43.8826V11.5502C56.1348 10.0042 54.8701 8.7403 53.3242 8.7403H7.37776C5.82995 8.7403 4.56702 10.0042 4.56702 11.5502V43.8826C4.56702 45.4278 5.82995 46.6925 7.37776 46.6925ZM8.22022 12.3928H52.4816V43.0384H8.22022V12.3928Z" fill="#F3F3F3"/>
<path d="M0 48.3081V49.0108C0 50.2473 1.01145 51.2596 2.24801 51.2596H57.7506C58.9888 51.2596 60.0001 50.2473 60.0001 49.0108V48.3081H0Z" fill="#F3F3F3"/>
</g>
<defs>
<clipPath id="clip0_36_707">
<rect width="60" height="60" fill="white"/>
</clipPath>
</defs>
</svg>
