<svg width="60" height="60" viewBox="0 0 60 60" fill="none" xmlns="http://www.w3.org/2000/svg">
<g clip-path="url(#clip0_36_695)">
<path d="M32.8749 23.2438C33.258 23.2438 33.5687 22.9332 33.5687 22.55C33.5687 22.1669 33.258 21.8563 32.8749 21.8563C32.4918 21.8563 32.1812 22.1669 32.1812 22.55C32.1812 22.9332 32.4918 23.2438 32.8749 23.2438Z" fill="#F3F3F3"/>
<path d="M34.9562 23.2438C35.3393 23.2438 35.65 22.9332 35.65 22.55C35.65 22.1669 35.3393 21.8563 34.9562 21.8563C34.5731 21.8563 34.2625 22.1669 34.2625 22.55C34.2625 22.9332 34.5731 23.2438 34.9562 23.2438Z" fill="#F3F3F3"/>
<path d="M37.0375 23.2438C37.4206 23.2438 37.7313 22.9332 37.7313 22.55C37.7313 22.1669 37.4206 21.8563 37.0375 21.8563C36.6544 21.8563 36.3438 22.1669 36.3438 22.55C36.3438 22.9332 36.6544 23.2438 37.0375 23.2438Z" fill="#F3F3F3"/>
<path d="M38.425 19.775H21.775C21.407 19.775 21.054 19.9212 20.7938 20.1814C20.5336 20.4416 20.3875 20.7945 20.3875 21.1625V35.0375C20.3875 35.4055 20.5336 35.7584 20.7938 36.0186C21.054 36.2788 21.407 36.425 21.775 36.425H38.425C38.7929 36.425 39.1459 36.2788 39.4061 36.0186C39.6663 35.7584 39.8125 35.4055 39.8125 35.0375V21.1625C39.8125 20.7945 39.6663 20.4416 39.4061 20.1814C39.1459 19.9212 38.7929 19.775 38.425 19.775ZM38.425 21.1625V23.9375H21.775V21.1625H38.425ZM21.775 25.325H25.9375V35.0375H21.775V25.325ZM27.325 35.0375V25.325H38.425V35.0375H27.325Z" fill="#F3F3F3"/>
<path d="M7.37776 46.6925H53.3242C54.8702 46.6925 56.1348 45.4278 56.1348 43.8826V11.5502C56.1348 10.0042 54.8701 8.7403 53.3242 8.7403H7.37776C5.82995 8.7403 4.56702 10.0042 4.56702 11.5502V43.8826C4.56702 45.4278 5.82995 46.6925 7.37776 46.6925ZM8.22022 12.3928H52.4816V43.0384H8.22022V12.3928Z" fill="#F3F3F3"/>
<path d="M0 48.3081V49.0108C0 50.2473 1.01145 51.2596 2.24801 51.2596H57.7506C58.9888 51.2596 60.0001 50.2473 60.0001 49.0108V48.3081H0Z" fill="#F3F3F3"/>
</g>
<defs>
<clipPath id="clip0_36_695">
<rect width="60" height="60" fill="white"/>
</clipPath>
</defs>
</svg>
