<svg width="60" height="60" viewBox="0 0 60 60" fill="none" xmlns="http://www.w3.org/2000/svg">
<g clip-path="url(#clip0_63_2002)">
<path d="M7.37776 46.6925H53.3242C54.8702 46.6925 56.1348 45.4278 56.1348 43.8826V11.5502C56.1348 10.0042 54.8701 8.74031 53.3242 8.74031H7.37776C5.82995 8.74031 4.56702 10.0042 4.56702 11.5502V43.8826C4.56702 45.4278 5.82995 46.6925 7.37776 46.6925ZM8.22022 12.3928H52.4816V43.0384H8.22022V12.3928Z" fill="#F3F3F3"/>
<path d="M0 48.3081V49.0107C0 50.2473 1.01145 51.2596 2.24801 51.2596H57.7506C58.9888 51.2596 60.0001 50.2473 60.0001 49.0107V48.3081H0Z" fill="#F3F3F3"/>
<path d="M29.9997 17.3481C23.8647 17.3481 18.8917 22.3214 18.8914 28.4569C18.8918 34.5922 23.8647 39.5657 29.9997 39.5657C36.1355 39.5657 41.1085 34.5922 41.1088 28.4569C41.1085 22.3214 36.1355 17.3481 29.9997 17.3481ZM23.1267 21.5839C24.1394 20.5718 25.373 19.7846 26.7482 19.2963C26.0894 20.0925 25.5402 21.1139 25.1099 22.2949H22.4829C22.6861 22.0484 22.9008 21.8099 23.1267 21.5839ZM21.7384 23.337H24.7755C24.3844 24.7216 24.1501 26.28 24.1088 27.9362H20.2941C20.3827 26.2519 20.9004 24.6852 21.7384 23.337ZM21.7384 33.5767C20.9004 32.2284 20.3827 30.6616 20.2942 28.9773H24.1126C24.1544 30.6319 24.3821 32.1928 24.7723 33.5767H21.7384ZM23.1267 35.3305C22.9008 35.1037 22.686 34.8654 22.4829 34.6187H25.1116C25.2974 35.1293 25.503 35.6143 25.7326 36.0596C26.0343 36.6423 26.3733 37.1654 26.7456 37.6173C25.371 37.129 24.139 36.341 23.1267 35.3305ZM29.4795 38.1635C29.3168 38.1544 29.1551 38.142 28.995 38.1254C28.7397 38.0112 28.4864 37.854 28.2357 37.6503C27.4704 37.0271 26.7616 35.972 26.2224 34.6187H29.4795V38.1635ZM29.4795 33.5767H25.8586C25.4476 32.2243 25.1939 30.6567 25.1501 28.9773H29.4796L29.4795 33.5767ZM29.4795 27.9362H25.1537C25.1972 26.2569 25.4521 24.6894 25.8634 23.337H29.4795V27.9362ZM29.4795 22.2949H26.2268C26.3617 21.9572 26.5033 21.6302 26.6581 21.3315C27.12 20.4368 27.6638 19.7317 28.2357 19.264C28.4864 19.0596 28.7397 18.9022 28.995 18.7881C29.1551 18.7714 29.3169 18.7591 29.4795 18.7516V22.2949ZM36.8737 21.5839C37.0996 21.8099 37.3141 22.0482 37.5173 22.2949H34.8887C34.7029 21.7842 34.4969 21.2993 34.2675 20.854C33.9659 20.2713 33.627 19.7482 33.2544 19.2963C34.6292 19.7846 35.861 20.5725 36.8737 21.5839ZM30.5206 18.7518C30.6832 18.7593 30.8451 18.7724 31.0048 18.7882C31.2606 18.9033 31.5139 19.0597 31.7646 19.2641C32.5302 19.8873 33.2387 20.9418 33.7779 22.295H30.5207L30.5206 18.7518ZM30.5206 23.337H34.1417C34.5526 24.6893 34.8062 26.2569 34.8501 27.9362H30.5206V23.337ZM30.5206 28.9774H34.8463C34.803 30.6567 34.548 32.2243 34.1363 33.5768H30.5206V28.9774ZM31.7646 37.6503C31.5139 37.854 31.2606 38.0103 31.0048 38.1254C30.8452 38.142 30.6832 38.1544 30.5206 38.1635V34.6187H33.7732C33.6384 34.9563 33.4969 35.2833 33.342 35.5821C32.8803 36.4768 32.3365 37.1828 31.7646 37.6503ZM36.8737 35.3305C35.8607 36.342 34.6271 37.129 33.2519 37.6173C33.9107 36.821 34.4594 35.7997 34.8901 34.6187H37.5171C37.3141 34.8654 37.0997 35.1037 36.8737 35.3305ZM38.2621 33.5767H35.2246C35.6158 32.192 35.8499 30.6335 35.8914 28.9773H39.706C39.6174 30.6616 39.1001 32.2284 38.2621 33.5767ZM39.706 27.9362H35.888C35.8462 26.2818 35.6186 24.7208 35.2279 23.337H38.2621C39.1001 24.6852 39.6174 26.2519 39.706 27.9362Z" fill="#F3F3F3"/>
</g>
<defs>
<clipPath id="clip0_63_2002">
<rect width="60" height="60" fill="white"/>
</clipPath>
</defs>
</svg>
