<svg width="60" height="60" viewBox="0 0 60 60" fill="none" xmlns="http://www.w3.org/2000/svg">
<g clip-path="url(#clip0_36_719)">
<path d="M24.55 35.7313C24.9331 35.7313 25.2437 35.4206 25.2437 35.0375C25.2437 34.6544 24.9331 34.3438 24.55 34.3438C24.1668 34.3438 23.8562 34.6544 23.8562 35.0375C23.8562 35.4206 24.1668 35.7313 24.55 35.7313Z" fill="#F3F3F3"/>
<path d="M22.4688 37.8125H37.7313C38.4944 37.8125 39.1188 37.1881 39.1188 36.425V33.65C39.1188 32.8869 38.4944 32.2625 37.7313 32.2625H22.4688C21.7057 32.2625 21.0813 32.8869 21.0813 33.65V36.425C21.0813 37.1881 21.7057 37.8125 22.4688 37.8125ZM22.4688 33.65H37.7313V36.425H22.4688V33.65ZM34.9563 30.875H25.2438C22.9475 30.875 21.0813 29.0088 21.0813 26.7125C21.0813 24.5966 22.67 22.8414 24.7235 22.5847C25.334 20.1566 27.554 18.3875 30.1 18.3875C32.6461 18.3875 34.8661 20.1566 35.4766 22.5847C37.5301 22.8414 39.1188 24.5966 39.1188 26.7125C39.1188 29.0088 37.2526 30.875 34.9563 30.875ZM25.2091 23.9375C24.4797 23.9484 23.7838 24.2454 23.2713 24.7644C22.7587 25.2834 22.4705 25.983 22.4688 26.7125C22.4688 28.2457 23.7106 29.4875 25.2438 29.4875H34.9563C36.4895 29.4875 37.7313 28.2457 37.7313 26.7125C37.7314 25.9837 37.4447 25.2841 36.9333 24.7648C36.4218 24.2456 35.7267 23.9484 34.9979 23.9375L34.9147 23.9444L34.3042 23.9583L34.2209 23.3478C33.9226 21.3082 32.1535 19.775 30.1 19.775C28.0465 19.775 26.2775 21.3082 25.9861 23.3478L25.9029 23.9583L25.2091 23.9375Z" fill="#F3F3F3"/>
<path d="M7.37788 46.6925H53.3243C54.8703 46.6925 56.1349 45.4278 56.1349 43.8826V11.5502C56.1349 10.0042 54.8702 8.74031 53.3243 8.74031H7.37788C5.83007 8.74031 4.56714 10.0042 4.56714 11.5502V43.8826C4.56714 45.4278 5.83007 46.6925 7.37788 46.6925ZM8.22034 12.3928H52.4817V43.0384H8.22034V12.3928Z" fill="#F3F3F3"/>
<path d="M0 48.3081V49.0107C0 50.2473 1.01145 51.2596 2.24801 51.2596H57.7506C58.9888 51.2596 60.0001 50.2473 60.0001 49.0107V48.3081H0Z" fill="#F3F3F3"/>
</g>
<defs>
<clipPath id="clip0_36_719">
<rect width="60" height="60" fill="white"/>
</clipPath>
</defs>
</svg>
