<svg width="60" height="60" viewBox="0 0 60 60" fill="none" xmlns="http://www.w3.org/2000/svg">
<g clip-path="url(#clip0_36_611)">
<path fill-rule="evenodd" clip-rule="evenodd" d="M34.6094 20.4688C34.1216 20.4685 33.6406 20.5825 33.2049 20.8017C32.7692 21.0209 32.3909 21.3391 32.1004 21.7308C31.8098 22.1225 31.6151 22.5769 31.5318 23.0574C31.4485 23.538 31.4789 24.0314 31.6207 24.4981L31.8011 25.0947L31.3612 25.5359L22.6838 34.2119C22.5109 34.3849 22.4137 34.6195 22.4137 34.8641C22.4137 35.1087 22.5109 35.3432 22.6838 35.5162C22.8568 35.6891 23.0913 35.7863 23.3359 35.7863C23.5805 35.7863 23.8151 35.6891 23.9881 35.5162L32.6641 26.8374L33.1053 26.3962L33.7019 26.5765C34.2816 26.7531 34.9002 26.7571 35.4821 26.5882C36.064 26.4192 36.5842 26.0845 36.9792 25.625C37.3742 25.1654 37.6268 24.6009 37.7064 24.0001C37.786 23.3994 37.6891 22.7885 37.4274 22.242L35.3461 24.3246C35.2502 24.424 35.1354 24.5034 35.0085 24.558C34.8815 24.6126 34.745 24.6413 34.6068 24.6426C34.4686 24.6439 34.3316 24.6176 34.2037 24.5653C34.0758 24.5131 33.9596 24.4359 33.8618 24.3382C33.764 24.2405 33.6867 24.1244 33.6343 23.9965C33.582 23.8687 33.5556 23.7317 33.5567 23.5935C33.5578 23.4553 33.5865 23.3187 33.641 23.1918C33.6954 23.0648 33.7747 22.9499 33.874 22.8539L35.9552 20.7726C35.5352 20.5713 35.0752 20.4684 34.6094 20.4688ZM29.4062 23.5906C29.4063 22.5238 29.7344 21.4827 30.3459 20.6086C30.9575 19.7344 31.8229 19.0693 32.8251 18.7035C33.8273 18.3376 34.9177 18.2887 35.9486 18.5633C36.9795 18.8378 37.9011 19.4227 38.5885 20.2386C39.2759 21.0544 39.6959 22.0619 39.7915 23.1245C39.8872 24.187 39.6539 25.2533 39.1234 26.1788C38.5928 27.1044 37.7905 27.8445 36.8252 28.2988C35.8599 28.7531 34.7783 28.8998 33.7269 28.7188L32.9596 29.4875L34.2625 30.7918L34.9146 30.1396L35.65 29.4043L36.3854 30.1396L38.9869 32.7412C39.2728 33.0184 39.5006 33.3497 39.6572 33.7158C39.8138 34.0819 39.896 34.4754 39.899 34.8736C39.902 35.2717 39.8259 35.6665 39.6749 36.035C39.5239 36.4034 39.3012 36.7381 39.0197 37.0197C38.7381 37.3012 38.4034 37.524 38.0349 37.6749C37.6665 37.8259 37.2717 37.9021 36.8736 37.899C36.4754 37.896 36.0818 37.8138 35.7158 37.6572C35.3497 37.5006 35.0184 37.2728 34.7412 36.9869L32.1396 34.3854L31.4042 33.65L32.1396 32.9146L32.7917 32.2625L31.4875 30.9583L25.4588 36.9869C25.1816 37.2728 24.8503 37.5006 24.4842 37.6572C24.1181 37.8138 23.7246 37.896 23.3264 37.899C22.9283 37.9021 22.5335 37.8259 22.165 37.6749C21.7966 37.524 21.4619 37.3012 21.1803 37.0197C20.8988 36.7381 20.676 36.4034 20.5251 36.035C20.3741 35.6665 20.2979 35.2717 20.301 34.8736C20.304 34.4754 20.3862 34.0819 20.5428 33.7158C20.6994 33.3497 20.9272 33.0184 21.2131 32.7412L27.2404 26.7125L23.8562 23.327L23.0002 24.1831L22.2967 23.1272L20.9092 21.046L20.4361 20.3356L21.0396 19.7334L21.7334 19.0396L22.3355 18.4361L23.0459 18.9092L25.1272 20.2967L26.1831 21.0002L25.3284 21.8563L28.7125 25.2418L29.4812 24.4731C29.4327 24.1814 29.4077 23.8863 29.4062 23.5906ZM35.65 32.3458L37.5162 34.2119C37.6891 34.3849 37.7863 34.6195 37.7863 34.8641C37.7863 35.1087 37.6891 35.3432 37.5162 35.5162C37.3432 35.6891 37.1087 35.7863 36.8641 35.7863C36.6195 35.7863 36.3849 35.6891 36.2119 35.5162L34.3471 33.65L35.65 32.3458Z" fill="#F3F3F3"/>
<path d="M7.37776 46.6925H53.3242C54.8702 46.6925 56.1348 45.4278 56.1348 43.8826V11.5502C56.1348 10.0042 54.8701 8.74031 53.3242 8.74031H7.37776C5.82995 8.74031 4.56702 10.0042 4.56702 11.5502V43.8826C4.56702 45.4278 5.82995 46.6925 7.37776 46.6925ZM8.22022 12.3928H52.4816V43.0384H8.22022V12.3928Z" fill="#F3F3F3"/>
<path d="M0 48.3081V49.0107C0 50.2473 1.01145 51.2596 2.24801 51.2596H57.7506C58.9888 51.2596 60.0001 50.2473 60.0001 49.0107V48.3081H0Z" fill="#F3F3F3"/>
</g>
<defs>
<clipPath id="clip0_36_611">
<rect width="60" height="60" fill="white"/>
</clipPath>
</defs>
</svg>
