<svg width="60" height="60" viewBox="0 0 60 60" fill="none" xmlns="http://www.w3.org/2000/svg">
<g clip-path="url(#clip0_36_671)">
<path d="M26.4 19.775C24.6828 19.775 23.0358 20.4572 21.8215 21.6715C20.6072 22.8858 19.925 24.5327 19.925 26.25C19.925 27.9673 20.6072 29.6142 21.8215 30.8285C23.0358 32.0428 24.6828 32.725 26.4 32.725H27.3898C27.3012 32.1115 27.3012 31.4885 27.3898 30.875H26.4C25.1734 30.875 23.997 30.3877 23.1297 29.5204C22.2623 28.653 21.775 27.4767 21.775 26.25C21.775 25.0234 22.2623 23.847 23.1297 22.9797C23.997 22.1123 25.1734 21.625 26.4 21.625H33.8C34.486 21.6249 35.1633 21.7773 35.783 22.0712C36.4028 22.3652 36.9493 22.7933 37.3832 23.3246C37.8171 23.8558 38.1273 24.4769 38.2915 25.1429C38.4557 25.8088 38.4697 26.503 38.3325 27.175C38.8778 27.7091 39.3244 28.3354 39.6516 29.025C40.1198 28.038 40.3306 26.9485 40.2645 25.8581C40.1984 24.7676 39.8574 23.7117 39.2734 22.7884C38.6894 21.8652 37.8812 21.1047 36.9242 20.5779C35.9672 20.051 34.8925 19.7748 33.8 19.775H26.4ZM33.8 29.025C33.0641 29.025 32.3582 29.3174 31.8378 29.8378C31.3174 30.3582 31.025 31.064 31.025 31.8C31.025 32.536 31.3174 33.2418 31.8378 33.7622C32.3582 34.2827 33.0641 34.575 33.8 34.575C34.536 34.575 35.2419 34.2827 35.7623 33.7622C36.2827 33.2418 36.575 32.536 36.575 31.8C36.575 31.064 36.2827 30.3582 35.7623 29.8378C35.2419 29.3174 34.536 29.025 33.8 29.025ZM29.175 31.8C29.1752 31.0789 29.344 30.3678 29.6679 29.7235C29.9919 29.0793 30.462 28.5197 31.0407 28.0895C31.6194 27.6592 32.2907 27.3703 33.001 27.2457C33.7113 27.1211 34.4408 27.1643 35.1314 27.3719C35.822 27.5795 36.4545 27.9457 36.9784 28.4412C37.5022 28.9368 37.903 29.548 38.1486 30.226C38.3942 30.904 38.4778 31.6301 38.3928 32.3461C38.3078 33.0622 38.0566 33.7485 37.6591 34.3502L40.004 36.696L38.6961 38.004L36.3503 35.6591C35.6532 36.1199 34.8442 36.3832 34.0095 36.421C33.1747 36.4589 32.3453 36.2698 31.6093 35.874C30.8734 35.4782 30.2584 34.8904 29.8298 34.173C29.4012 33.4557 29.1749 32.6357 29.175 31.8Z" fill="#F3F3F3"/>
<path d="M7.37788 46.6925H53.3243C54.8703 46.6925 56.1349 45.4278 56.1349 43.8826V11.5502C56.1349 10.0042 54.8702 8.7403 53.3243 8.7403H7.37788C5.83007 8.7403 4.56714 10.0042 4.56714 11.5502V43.8826C4.56714 45.4278 5.83007 46.6925 7.37788 46.6925ZM8.22034 12.3928H52.4817V43.0384H8.22034V12.3928Z" fill="#F3F3F3"/>
<path d="M0 48.3081V49.0108C0 50.2473 1.01145 51.2596 2.24801 51.2596H57.7506C58.9888 51.2596 60.0001 50.2473 60.0001 49.0108V48.3081H0Z" fill="#F3F3F3"/>
</g>
<defs>
<clipPath id="clip0_36_671">
<rect width="60" height="60" fill="white"/>
</clipPath>
</defs>
</svg>
